<svg id="Layer_1" data-name="Layer 1" xmlns="http://www.w3.org/2000/svg" viewBox="0 0 315.36 141"><defs><style>.cls-1{fill:#5aac26;}.cls-2{font-size:54px;font-family:Roboto-Black, Roboto;font-weight:800;}.cls-2,.cls-4{fill:#1a171b;}.cls-3{letter-spacing:-0.01em;}.cls-4{font-size:22.05px;font-family:Roboto-Light, Roboto;font-weight:300;}.cls-5{letter-spacing:-0.01em;}.cls-6{letter-spacing:-0.01em;}.cls-7{letter-spacing:0em;}.cls-8{letter-spacing:-0.04em;}.cls-9{letter-spacing:-0.01em;}</style></defs><g id="cAaMWu"><path class="cls-1" d="M243.68,237.76A13.4,13.4,0,0,1,232,246.68c-5.36.53-9.79-1.77-11.72-6.7A40.54,40.54,0,0,1,218,227.42c-.24-4.52-.94-8.59-4.44-11.75-5.32-4.81-12.11-3.58-15.39,2.79-2.48,4.79-2,9.47-.16,14.44,3.68,9.72-3.73,20-13.55,19.13-9.6-.82-14.92-11-9.75-19.15,2-3.21,5-5.81,7.16-9,1.74-2.55,3.56-5.38,4.15-8.33a9.5,9.5,0,0,0-12.91-10.65c-2.9,1.22-5.43,3.72-7.64,6.08-2.48,2.66-4.21,6-6.66,8.72-3.9,4.32-9.41,5.36-14.07,3.11a13.8,13.8,0,0,1-8-14.24c.8-5.54,4.65-9.49,10.63-10.37,3.78-.56,7.69-.31,11.43-1a20.38,20.38,0,0,0,7.68-3.09c3.36-2.32,5.52-6.2,3.82-10-1.35-3-4.44-6.37-7.37-7.08-4.27-1-9.15-.23-13.64.53-4.85.83-9.28.92-13.18-2.48-5.46-4.77-6.36-12.71-2.06-18a13.34,13.34,0,0,1,18.42-2c2.91,2.21,5.42,5,8.32,7.18,6.18,4.75,12.92,4.57,16.51-.25,3.75-5,1.84-12.46-4.34-16.86-2.71-1.93-5.57-3.69-8.12-5.81-5.09-4.23-6.59-10-4.25-15.15a13.55,13.55,0,0,1,14.29-7.82c6.19.92,9.49,4.48,10.4,11.57.51,4,.47,8,1.11,11.94,1,5.95,5.06,9.86,10.07,10.15,5.77.33,9.71-2.79,10.17-8.56a70.5,70.5,0,0,0-.39-9.94c-.18-2.82-.76-5.63-.69-8.43.16-6.24,3.49-10.44,8.91-11.74a13.53,13.53,0,0,1,15,6.36c3.25,5.2,2.87,9.68-1.53,14.56-5,5.55-10.69,10.66-10.68,19.36-3.71.26-6.88.29-10,.74-14.94,2.17-24.65,14.59-24.05,30.61.52,14.17,11.8,26.71,26.07,26.55,10-.12,17.77,2.13,24.21,9.67,1.91,2.24,4.66,3.75,6.87,5.77C244.2,228.57,245.62,232.88,243.68,237.76Z" transform="translate(-131.37 -111.07)"/></g><text class="cls-2" transform="translate(64.84 91.16)">Ronat<tspan class="cls-3" x="144.54" y="0">r</tspan><tspan x="163.98" y="0">ack</tspan></text><text class="cls-4" transform="translate(120.75 117.82)">Co<tspan class="cls-5" x="26.41" y="0">r</tspan><tspan x="33.7" y="0">on</tspan><tspan class="cls-6" x="58.24" y="0">a</tspan><tspan class="cls-7" x="69.94" y="0">virus </tspan><tspan class="cls-8" x="122.1" y="0">T</tspan><tspan x="134.35" y="0">rac</tspan><tspan class="cls-9" x="165.13" y="0">k</tspan><tspan x="175.75" y="0">er</tspan></text></svg>